<svg width="120" height="120" viewBox="0 0 120 120" fill="none" xmlns="http://www.w3.org/2000/svg">
  <!-- 背景圆形 -->
  <circle cx="60" cy="60" r="58" fill="url(#backgroundGradient)" stroke="url(#borderGradient)" stroke-width="4"/>
  
  <!-- 渐变定义 -->
  <defs>
    <!-- 背景渐变 -->
    <linearGradient id="backgroundGradient" x1="0%" y1="0%" x2="100%" y2="100%">
      <stop offset="0%" style="stop-color:#0ea5e9;stop-opacity:1" />
      <stop offset="50%" style="stop-color:#06b6d4;stop-opacity:1" />
      <stop offset="100%" style="stop-color:#0891b2;stop-opacity:1" />
    </linearGradient>
    
    <!-- 边框渐变 -->
    <linearGradient id="borderGradient" x1="0%" y1="0%" x2="100%" y2="100%">
      <stop offset="0%" style="stop-color:#0284c7;stop-opacity:1" />
      <stop offset="100%" style="stop-color:#0e7490;stop-opacity:1" />
    </linearGradient>
    
    <!-- 磷虾身体渐变 -->
    <linearGradient id="krillBodyGradient" x1="0%" y1="0%" x2="100%" y2="100%">
      <stop offset="0%" style="stop-color:#ffffff;stop-opacity:0.95" />
      <stop offset="50%" style="stop-color:#f0f9ff;stop-opacity:0.9" />
      <stop offset="100%" style="stop-color:#e0f2fe;stop-opacity:0.85" />
    </linearGradient>
    
    <!-- 网络连接线渐变 -->
    <linearGradient id="networkGradient" x1="0%" y1="0%" x2="100%" y2="100%">
      <stop offset="0%" style="stop-color:#fbbf24;stop-opacity:0.8" />
      <stop offset="100%" style="stop-color:#f59e0b;stop-opacity:0.9" />
    </linearGradient>
    
    <!-- 阴影滤镜 -->
    <filter id="dropShadow" x="-50%" y="-50%" width="200%" height="200%">
      <feDropShadow dx="2" dy="2" stdDeviation="3" flood-color="#000000" flood-opacity="0.2"/>
    </filter>
  </defs>
  
  <!-- 网络连接线（背景） -->
  <g opacity="0.6">
    <!-- 水平连接线 -->
    <line x1="25" y1="45" x2="95" y2="45" stroke="url(#networkGradient)" stroke-width="2" opacity="0.7"/>
    <line x1="25" y1="75" x2="95" y2="75" stroke="url(#networkGradient)" stroke-width="2" opacity="0.7"/>
    
    <!-- 垂直连接线 -->
    <line x1="35" y1="30" x2="35" y2="90" stroke="url(#networkGradient)" stroke-width="2" opacity="0.5"/>
    <line x1="85" y1="30" x2="85" y2="90" stroke="url(#networkGradient)" stroke-width="2" opacity="0.5"/>
    
    <!-- 对角连接线 -->
    <line x1="30" y1="35" x2="90" y2="85" stroke="url(#networkGradient)" stroke-width="1.5" opacity="0.4"/>
    <line x1="90" y1="35" x2="30" y2="85" stroke="url(#networkGradient)" stroke-width="1.5" opacity="0.4"/>
  </g>
  
  <!-- 网络节点 -->
  <g>
    <circle cx="35" cy="45" r="3" fill="#fbbf24" opacity="0.8"/>
    <circle cx="85" cy="45" r="3" fill="#fbbf24" opacity="0.8"/>
    <circle cx="35" cy="75" r="3" fill="#fbbf24" opacity="0.8"/>
    <circle cx="85" cy="75" r="3" fill="#fbbf24" opacity="0.8"/>
  </g>
  
  <!-- 磷虾主体 -->
  <g filter="url(#dropShadow)">
    <!-- 磷虾身体 -->
    <ellipse cx="60" cy="60" rx="22" ry="12" fill="url(#krillBodyGradient)" stroke="#0891b2" stroke-width="1.5"/>
    
    <!-- 磷虾头部 -->
    <ellipse cx="45" cy="58" rx="8" ry="6" fill="url(#krillBodyGradient)" stroke="#0891b2" stroke-width="1"/>
    
    <!-- 磷虾尾部 -->
    <path d="M 82 60 Q 88 58 90 60 Q 88 62 82 60" fill="url(#krillBodyGradient)" stroke="#0891b2" stroke-width="1"/>
    
    <!-- 磷虾眼睛 -->
    <circle cx="42" cy="56" r="2" fill="#1e40af"/>
    <circle cx="42.5" cy="55.5" r="0.8" fill="#ffffff"/>
    
    <!-- 磷虾触角 -->
    <path d="M 38 55 Q 32 50 30 48" stroke="#0891b2" stroke-width="1.5" fill="none" stroke-linecap="round"/>
    <path d="M 38 61 Q 32 66 30 68" stroke="#0891b2" stroke-width="1.5" fill="none" stroke-linecap="round"/>
    
    <!-- 磷虾腿部 -->
    <g stroke="#0891b2" stroke-width="1" fill="none" stroke-linecap="round">
      <path d="M 50 66 Q 48 70 46 72"/>
      <path d="M 55 67 Q 53 71 51 73"/>
      <path d="M 60 67 Q 58 71 56 73"/>
      <path d="M 65 67 Q 63 71 61 73"/>
      <path d="M 70 66 Q 68 70 66 72"/>
    </g>
    
    <!-- 磷虾背部纹理 -->
    <g stroke="#0891b2" stroke-width="0.8" opacity="0.6" fill="none">
      <path d="M 48 54 Q 60 52 72 54"/>
      <path d="M 48 60 Q 60 58 72 60"/>
      <path d="M 48 66 Q 60 64 72 66"/>
    </g>
  </g>
  
  <!-- 发光效果 -->
  <g opacity="0.3">
    <circle cx="60" cy="60" r="35" fill="none" stroke="#ffffff" stroke-width="1" opacity="0.4"/>
    <circle cx="60" cy="60" r="40" fill="none" stroke="#ffffff" stroke-width="0.5" opacity="0.2"/>
  </g>
  
  <!-- 数据流动效果 -->
  <g opacity="0.7">
    <circle cx="25" cy="35" r="1.5" fill="#fbbf24">
      <animate attributeName="opacity" values="0.3;1;0.3" dur="2s" repeatCount="indefinite"/>
    </circle>
    <circle cx="95" cy="85" r="1.5" fill="#fbbf24">
      <animate attributeName="opacity" values="1;0.3;1" dur="2s" repeatCount="indefinite"/>
    </circle>
    <circle cx="95" cy="35" r="1.5" fill="#fbbf24">
      <animate attributeName="opacity" values="0.5;1;0.5" dur="1.5s" repeatCount="indefinite"/>
    </circle>
    <circle cx="25" cy="85" r="1.5" fill="#fbbf24">
      <animate attributeName="opacity" values="1;0.5;1" dur="1.5s" repeatCount="indefinite"/>
    </circle>
  </g>
</svg>