<?xml version="1.0" encoding="UTF-8"?>
<!-- OpenShrimp minimal vector mark -->
<svg xmlns="http://www.w3.org/2000/svg" viewBox="0 0 512 512" role="img" aria-label="OpenShrimp Logo">
  <defs>
    <linearGradient id="g1" x1="0" y1="0" x2="1" y2="1">
      <stop offset="0%" stop-color="#3DD5F3"/>
      <stop offset="50%" stop-color="#2BB7F0"/>
      <stop offset="100%" stop-color="#1F7AE0"/>
    </linearGradient>
    <linearGradient id="g2" x1="0" y1="1" x2="1" y2="0">
      <stop offset="0%" stop-color="#54E0D3"/>
      <stop offset="100%" stop-color="#2C8CF0"/>
    </linearGradient>
  </defs>
  <rect width="512" height="512" fill="none"/>
  <!-- Body segments -->
  <path d="M120 270c30-85 120-130 210-115 35 6 65 21 90 44-25 11-55 17-90 18-65 2-120 22-160 53-18 14-33 0-50 0z" fill="url(#g1)"/>
  <path d="M140 320c20-25 50-45 95-60 48-16 103-22 165-19-20 23-46 41-77 54-77 33-146 38-183 25z" fill="url(#g2)"/>
  <!-- Tail -->
  <path d="M355 360c28-8 54-23 76-43 8 22 1 42-23 59-22 15-48 18-72 9 7-8 13-17 19-25z" fill="url(#g1)"/>
  <!-- Head -->
  <path d="M385 210c35-6 68 0 98 18-18 16-39 27-62 33-48 12-95 2-141-30 38-19 72-25 105-21z" fill="url(#g2)"/>
  <!-- Eye -->
  <circle cx="420" cy="230" r="10" fill="#0B2D57"/>
  <!-- Antennas -->
  <path d="M360 180c30-20 66-24 108-10" stroke="#2C8CF0" stroke-width="6" fill="none" stroke-linecap="round"/>
  <path d="M350 170c40-28 90-30 150-6" stroke="#3DD5F3" stroke-width="5" fill="none" stroke-linecap="round"/>
</svg>